<?xml version="1.0" standalone="no"?>
<!DOCTYPE svg PUBLIC "-//W3C//DTD SVG 20010904//EN"
 "http://www.w3.org/TR/2001/REC-SVG-20010904/DTD/svg10.dtd">
<svg version="1.0" xmlns="http://www.w3.org/2000/svg"
 width="512.000000pt" height="512.000000pt" viewBox="0 0 512.000000 512.000000"
 preserveAspectRatio="xMidYMid meet">

<g transform="translate(0.000000,512.000000) scale(0.100000,-0.100000)"
fill="#000000" stroke="none">
<path d="M0 2560 l0 -2560 2560 0 2560 0 0 2560 0 2560 -2560 0 -2560 0 0
-2560z m1605 1377 c77 -36 127 -85 159 -157 35 -77 43 -161 23 -231 -46 -156
-169 -242 -352 -242 -109 0 -180 24 -249 85 -67 58 -98 125 -104 221 -6 93 9
150 53 212 71 101 175 147 320 142 73 -2 101 -8 150 -30z m1900 -862 c33 -8
98 -34 144 -56 68 -32 100 -56 166 -122 69 -68 90 -98 128 -177 91 -192 97
-243 97 -972 l0 -608 -320 0 -320 0 0 543 c-1 650 -5 689 -90 805 -48 66 -121
97 -230 96 -65 0 -96 -5 -132 -21 -64 -29 -143 -111 -176 -181 l-27 -57 -3
-592 -3 -593 -319 0 -320 0 0 955 0 955 320 0 320 0 0 -126 0 -127 22 29 c146
195 328 280 578 269 58 -2 132 -11 165 -20z m-1745 -980 l0 -955 -325 0 -325
0 0 955 0 955 325 0 325 0 0 -955z"/>
</g>
</svg>
